<?xml version="1.0" encoding="UTF-8"?>
<svg id="Layer_1" xmlns="http://www.w3.org/2000/svg" viewBox="0 0 1080 1080">
  <defs>
    <style>
      .cls-1 {
        fill: #00aeef;
      }

      .cls-2 {
        fill: #fff;
      }

      .cls-3 {
        fill: #091c33;
      }

      .cls-4 {
        fill: #0bd1ff;
      }
    </style>
  </defs>
  <rect class="cls-3" width="1080" height="1080"/>
  <g>
    <g>
      <path class="cls-2" d="M796.2,630.92l21.9,42.99h-29.14l-17.93-38.81h-22.21v38.81h-20.99v-59.8h53.79c1.22,0,2.24-.31,3.26-.92s1.73-1.53,2.44-2.55c.61-1.12.92-2.24.92-3.57s-.31-2.55-.92-3.57c-.51-1.02-1.43-1.94-2.44-2.55-.92-.51-2.04-.92-3.26-.92h-53.79v-21.19h53.79c5.09,0,9.78,1.22,14.06,3.77,4.07,2.55,7.44,6.01,9.88,10.19,2.44,4.28,3.67,8.96,3.67,14.16s-1.02,8.86-3.06,12.84c-1.94,3.97-4.79,7.23-8.25,9.78-.51.51-1.12.92-1.73,1.22v.2-.1Z"/>
      <path class="cls-2" d="M626.07,578.86h81.4v21.19h-30.15v73.86h-20.99v-73.86h-30.15v-21.19h-.1Z"/>
      <path class="cls-2" d="M348.67,601.89c-1.83,1.32-3.36,3.16-4.38,5.4-1.12,2.55-1.63,5.4-1.63,8.46s.92,28.12,2.04,30.66c1.12,2.24,2.65,4.07,4.58,5.4,1.73,1.22,3.97,1.94,6.52,1.94h44.62v20.68h-44.62c-5.09,0-9.68-.51-13.85-2.55-4.07-1.94-7.74-4.69-10.7-8.05-2.95-3.46-5.2-7.33-6.72-11.72-1.53-4.38-2.75-31.28-2.75-36.27s.82-9.58,2.24-13.85c1.53-4.38,3.77-8.35,6.72-11.72,2.95-3.46,6.62-6.21,10.7-8.25,4.18-1.94,8.86-2.95,13.85-2.95h44.62v21.19h-44.62c-2.65,0-4.89.61-6.62,1.73h0v-.1Z"/>
      <path class="cls-2" d="M590.31,578.86h20.99v95.05h-20.99v-27.51c0-4.48-.92-8.76-2.65-12.94-1.94-4.38-4.38-8.46-7.54-12.12-3.26-3.87-6.83-7.23-10.7-10.19-3.97-2.95-7.95-5.4-12.02-7.23-1.22-.61-2.34-1.12-3.57-1.63v71.72h-20.99v-95.05h10.49c4.79,0,9.98.92,15.59,2.75,5.3,1.83,10.49,4.38,15.89,7.54,5.3,3.16,10.19,6.93,14.87,11.41.2.2.41.41.71.71v-22.51h-.1Z"/>
      <path class="cls-2" d="M978.86,651.7h48.49v22.31h-69.48v-95.05h20.99v72.84h0v-.1Z"/>
      <g>
        <polygon class="cls-2" points="861.29 673.91 838.17 673.91 873.93 578.86 894 579.27 861.29 673.91"/>
        <polygon class="cls-1" points="909.58 673.91 935.05 673.91 912.64 614.83 890.12 613.81 909.58 673.91"/>
      </g>
      <g>
        <rect class="cls-2" x="431.69" y="578.86" width="74.27" height="22"/>
        <rect class="cls-2" x="431.69" y="616.86" width="74.27" height="22"/>
        <polygon class="cls-2" points="506.06 674.32 431.79 674.32 431.69 652.83 505.96 652.83 506.06 674.32"/>
      </g>
    </g>
    <g>
      <path class="cls-2" d="M708.48,471.69l31.78,62.86h-42.18l-25.88-56.85h-32.19v56.85h-30.36v-87.31h77.93c1.73,0,3.26-.51,4.69-1.43,1.43-.92,2.55-2.14,3.57-3.67.92-1.63,1.43-3.26,1.43-5.2s-.51-3.67-1.43-5.2c-.71-1.53-2.04-2.75-3.57-3.67-1.22-.71-2.95-1.22-4.69-1.22h-77.93v-30.66h77.93c7.33,0,14.06,1.73,20.37,5.5,6.01,3.67,10.8,8.66,14.36,14.77,3.57,6.21,5.3,12.94,5.3,20.48s-1.53,12.84-4.48,18.54c-2.75,5.7-6.83,10.39-11.92,14.26-.71.71-1.63,1.22-2.55,1.73v.31l-.2-.1Z"/>
      <g>
        <polygon class="cls-2" points="484.06 534.45 450.64 534.45 504.43 396.31 533.46 396.82 484.06 534.45"/>
        <polygon class="cls-1" points="556.9 534.55 593.88 534.55 560.46 448.26 527.86 446.94 556.9 534.55"/>
      </g>
      <path class="cls-2" d="M1007.08,460.59c3.06,5.2,4.58,10.9,4.58,17.11s.71,30.87-2.24,36.06c-2.95,5.2-7.03,12.94-12.02,15.99-5.09,3.16-10.8,4.69-17.01,4.69h-84.15l-2.24-33.72h84.15c.92,0,1.63-.2,2.24-.92.71-.71,1.02-1.73,1.02-2.75s-.41-21.5-1.02-22.11-1.43-.92-2.24-.92h-50.43c-6.21,0-11.92-1.63-17.01-4.79-5.09-3.06-9.17-7.13-12.02-12.33-3.06-5.2-4.58-19.97-4.58-26.18s1.53-12.02,4.58-17.32c2.95-5.2,7.03-9.27,12.02-12.33,5.2-3.16,10.9-4.69,17.01-4.69h77.93v30.66h-77.93c-.71,0-1.53.41-2.24,1.02-.71.71-1.02,1.53-1.02,2.55s.41,10.9,1.12,11.82c.71.71,1.53,1.02,2.24,1.02h50.43c6.32,0,11.92,1.53,17.01,4.69,5.09,3.06,9.17,7.13,12.02,12.33h-.1l-.1.1Z"/>
      <path class="cls-2" d="M756.26,396.31h117.97v30.66h-43.7v107.68h-30.36v-107.68h-43.7v-30.66h-.2Z"/>
      <path class="cls-2" d="M449.83,416.68c3.57,6.21,5.3,12.94,5.3,20.48s-1.73,14.26-5.3,20.48c-3.57,6.11-8.35,10.9-14.36,14.57-6.11,3.77-12.84,5.6-20.37,5.6h-47.58v57.46h-30.36v-138.85h77.93c7.33,0,14.06,1.73,20.37,5.5,6.01,3.67,10.8,8.66,14.36,14.77h0ZM423.44,442.15c.92-1.63,1.43-3.26,1.43-5.2s-.51-3.67-1.43-5.2c-.71-1.53-2.04-2.75-3.57-3.67-1.22-.71-2.95-1.22-4.69-1.22h-47.58v20.37h47.58c1.73,0,3.26-.51,4.69-1.43,1.43-.92,2.55-2.14,3.57-3.67h0Z"/>
    </g>
    <g>
      <path class="cls-2" d="M101.42,466.5c2.95-8.66,6.93-14.26,5.4-17.22-5.2-10.49-4.99-20.78,5.5-25.06,7.33-2.95,17.42.71,26.18,1.53,0,1.83,0,3.77.1,5.5,3.87-2.14,7.74-4.07,13.14-6.93,3.87,11.41,21.09,16.3,12.02,33.82,8.86,0,23.63-3.87,11.82,13.04,2.85,1.83,5.81,5.09,8.35,4.99,8.86-.92,12.02.41,7.03,9.78-3.87,7.33-2.24,11.41,7.64,8.66,1.53-.41,5.4,4.99,6.72,8.05,1.53,3.57,1.02,7.95,1.53,11.82,4.69-1.63,9.58-2.65,13.75-5.2,4.07-2.44,7.03-6.11,13.14-11.72v-73.86c5.09-.92,9.47-1.83,17.11-3.16-7.33-8.25-13.14-14.67-19.05-21.09.92-1.83,1.83-3.46,2.65-5.2,13.65,1.02,27.4,3.87,41.46-3.87v299.51c-7.54-2.44-13.35-4.18-21.7-6.72-17.93,10.8-34.33,3.77-39.73-20.07-.61-2.95-4.69-7.33-7.33-7.54-14.06-.61-20.78-8.35-24.86-20.99-4.69-14.67-38.61-27-52.57-19.76-32.19,16.81-68.15.71-76.2-34.13-3.16-13.65,2.14-18.54,15.69-14.36,7.74,2.44,15.38,5.2,24.25,8.25,1.94-4.38,3.57-8.05,5.7-12.84-8.66-3.16-16.5-5.5-23.84-8.96-4.79-2.24-12.12-6.01-12.12-9.27-.1-4.38,4.99-9.78,9.17-13.04,26.79-21.09,62.45-12.02,78.24,18.74,3.16,6.01,9.58,10.59,15.28,14.87,1.22.92,6.42-1.83,8.56-4.07,1.53-1.63,1.94-6.01.71-7.64-1.02-1.53-4.99-1.32-7.64-1.53-7.54,0-10.29-2.44-6.72-10.19,3.57-7.74,4.48-14.26-7.74-8.35-.71.31-6.72-6.01-6.11-8.56,1.94-9.88,2.44-9.17-6.72-9.78-2.65,0-7.33-5.4-7.03-7.64,1.94-13.96.61-13.14-14.26-19.66-8.25-3.57-13.14-14.87-17.52-19.97h-.2l.2-.2ZM88.68,538.42c6.93,11.82,34.43,2.14,25.16,27.3-3.16,8.56-5.09,22-10.8,23.94-8.56,2.85-19.76-2.65-30.26-4.69,10.8,20.99,30.56,29.34,48.08,16.5,13.04-9.58,23.02-6.11,35.04-1.94,9.27,3.26,18.44,6.42,27.91,9.27,2.65.71,5.81,0,10.59,0-9.17-15.28-16.61-28.32-33.72-30.97-12.73-2.14-19.66-8.56-23.84-21.6-6.62-20.27-27.61-27-48.19-17.83h0ZM236.2,671.47c9.58-7.33,16.61-12.73,23.63-18.24-5.09-4.07-9.88-8.35-15.28-11.82-14.26-9.17-22-21.39-20.78-38.61,1.22-17.22,10.59-28.32,26.39-34.74,3.46-1.53,6.42-3.87,9.58-5.81-2.44-3.57-4.18-7.64-7.23-10.49-3.87-3.57-8.86-6.32-16.81-11.72.31,27-15.99,36.37-36.98,40.34,14.36,21.7,14.26,21.7,3.77,44.21-3.57,7.74.31,10.09,7.95,12.12,7.54,2.14,15.18,7.03,20.37,12.84,3.57,3.87,2.95,11.41,5.4,22h0v-.1ZM254.53,437.26c-1.32.41-2.85,1.02-4.18,1.53,0,18.44-.1,36.67.1,55.11,0,2.85,2.55,5.7,3.87,8.56,1.94-2.85,5.5-5.5,5.5-8.56.61-15.89.61-31.89,0-47.78,0-2.95-3.46-5.81-5.4-8.86h.1ZM259.32,586.51c-13.65,1.02-18.24,10.9-17.22,20.07.92,7.33,8.86,13.96,13.45,20.78,1.22-.92,2.44-1.94,3.57-2.85v-38.1h.1l.1.1ZM153.58,447.75c-7.33-7.03-22.82,1.22-36.98,18.44,4.38,3.06,16.71-3.06,36.98-18.44ZM134.83,476.48c3.46,4.69,6.72,8.86,11.41,14.98,1.32-11.21,19.46-15.69,7.23-29.03-6.62,4.99-11.82,8.96-18.54,14.06h-.1ZM194.02,515.8c-3.26,11.51-19.36,15.38-7.03,31.17,1.94-11.41,18.74-14.36,7.03-31.17ZM166.62,479.95c-3.77,10.09-18.44,14.26-6.72,27.1,0-8.96,19.36-11.51,6.72-27.1ZM172.02,527.32c6.01-10.19,19.97-14.67,7.54-29.54-1.94,10.8-17.73,14.26-7.54,29.54ZM193.41,555.64c1.32,1.53,2.85,2.95,4.18,4.38,5.4-4.99,11.1-9.78,15.99-14.98.31-.41-3.57-4.79-6.42-8.35-5.2,7.23-9.58,13.04-13.96,19.05h.1l.1-.1Z"/>
      <rect class="cls-4" x="276.44" y="389.38" width="21.39" height="301.24"/>
    </g>
  </g>
</svg>