<svg width="24" height="24" viewBox="0 0 24 24" fill="none" xmlns="http://www.w3.org/2000/svg">
<g clip-path="url(#clip0_7227_1610)">
<path d="M11.9834 0.725098C7.83947 0.75963 0.0351562 1.55388 0.0351562 11.9827C0.0351562 22.4114 8.01214 23.1366 11.9488 23.2747C15.92 23.1711 23.897 22.4805 23.897 11.9827C23.897 1.48481 16.1272 0.75963 11.9834 0.725098ZM11.4308 1.55387H12.5359V9.66898H11.4308V1.55387ZM1.38192 11.9827C1.38192 3.72942 6.8035 1.55387 11.12 1.55387L7.56321 11.6719L6.00926 21.1683C5.59487 21.0992 1.34739 19.0618 1.38192 11.9827ZM12.0179 22.5496C10.0841 22.515 7.25242 21.8934 6.56177 21.4445L11.2927 11.0848H12.674L17.3704 21.5136C16.6798 21.9625 13.9172 22.5496 12.0179 22.5496ZM17.9229 21.2373L16.5071 11.6719L12.8467 1.55387C17.1632 1.55387 22.5848 3.76395 22.5848 11.9827C22.6193 19.0618 18.3373 21.1683 17.9229 21.2373Z" fill="#E8F3FF"/>
</g>
<defs>
<clipPath id="clip0_7227_1610">
<rect width="24" height="24" fill="white"/>
</clipPath>
</defs>
</svg>
